<?xml version="1.0" encoding="utf-8"?>
<!-- Generator: Adobe Illustrator 15.1.0, SVG Export Plug-In  -->
<!DOCTYPE svg PUBLIC "-//W3C//DTD SVG 1.1//EN" "http://www.w3.org/Graphics/SVG/1.1/DTD/svg11.dtd" [
	<!ENTITY ns_flows "http://ns.adobe.com/Flows/1.0/">
]>
<svg version="1.1"
	 xmlns="http://www.w3.org/2000/svg" xmlns:xlink="http://www.w3.org/1999/xlink" xmlns:a="http://ns.adobe.com/AdobeSVGViewerExtensions/3.0/"
	 x="0px" y="0px" width="33px" height="32px" viewBox="-0.5 -0.5 33 32"
	 overflow="visible" enable-background="new -0.5 -0.5 33 32" xml:space="preserve">
<defs>
</defs>
<path fill="#FFFFFF" d="M7.91,20.189c0,0,0.722,0.698,1.659,0.698c0.733,0,1.151-0.349,1.151-0.774c0-0.613-0.632-0.866-1.5-0.866
	H8.654L8.237,18.32l1.06-1.235c0.384-0.448,0.7-0.732,0.7-0.732v-0.021c0,0-0.259,0.056-0.768,0.056H7.3v-1.64h5.089v1.191
	l-1.636,1.825c1.195,0.251,1.952,1.169,1.952,2.261c0,1.334-0.971,2.667-2.99,2.667c-1.806,0-2.754-1.026-2.754-1.026L7.91,20.189z"
	/>
<path fill="#FFFFFF" d="M13.878,20.92h1.715v-3.257c0-0.294,0.012-0.601,0.012-0.601h-0.022c0,0-0.101,0.219-0.316,0.416
	l-0.485,0.426l-1.139-1.18l2.177-1.978h1.705v6.173h1.727v1.64h-5.372V20.92L13.878,20.92z"/>
<path fill="#FFFFFF" d="M25.057,5.502h-2.99V3.475c0-1.916-1.609-3.475-3.59-3.475c-1.977,0-3.586,1.559-3.586,3.475v2.027h-3.648
	V3.475C11.243,1.559,9.633,0,7.654,0C5.676,0,4.067,1.559,4.067,3.475v2.027H1.076C0.482,5.502,0,5.969,0,6.544v19.633
	c0,0.576,0.482,1.042,1.076,1.042h23.981c0.596,0,1.076-0.466,1.076-1.042V6.544C26.133,5.968,25.652,5.502,25.057,5.502z
	 M17.043,3.475c0-0.768,0.643-1.39,1.434-1.39c0.793,0,1.436,0.623,1.436,1.39v4.72c0,0.767-0.643,1.389-1.436,1.389
	c-0.791,0-1.434-0.622-1.434-1.389V3.475z M6.218,3.475c0-0.768,0.644-1.39,1.436-1.39c0.792,0,1.436,0.623,1.436,1.39v4.72
	c0,0.767-0.644,1.389-1.436,1.389c-0.792,0-1.436-0.622-1.436-1.389V3.475z M23.98,25.135H2.153v-12.51H23.98V25.135z"/>
<polygon fill="#FFED00" points="29.694,30.968 25.873,28.935 22.079,31.017 22.779,26.654 19.681,23.591 23.935,22.929 
	25.812,18.953 27.741,22.904 32,23.515 28.939,26.618 "/>
</svg>
