<?xml version="1.0" encoding="utf-8"?>
<!-- Generator: Adobe Illustrator 16.0.3, SVG Export Plug-In . SVG Version: 6.00 Build 0)  -->
<!DOCTYPE svg PUBLIC "-//W3C//DTD SVG 1.1//EN" "http://www.w3.org/Graphics/SVG/1.1/DTD/svg11.dtd">
<svg version="1.1"
	 id="svg4375" xmlns:dc="http://purl.org/dc/elements/1.1/" xmlns:cc="http://creativecommons.org/ns#" xmlns:rdf="http://www.w3.org/1999/02/22-rdf-syntax-ns#" xmlns:svg="http://www.w3.org/2000/svg" xmlns:sodipodi="http://sodipodi.sourceforge.net/DTD/sodipodi-0.dtd" xmlns:inkscape="http://www.inkscape.org/namespaces/inkscape" inkscape:version="0.48.3.1 r9886" sodipodi:docname="calendar.svg" inkscape:export-filename="calendar.png" inkscape:export-xdpi="90" inkscape:export-ydpi="90"
	 xmlns="http://www.w3.org/2000/svg" xmlns:xlink="http://www.w3.org/1999/xlink" x="0px" y="0px" width="32px" height="32px"
	 viewBox="0 0 32 32" enable-background="new 0 0 32 32" xml:space="preserve">
<sodipodi:namedview  id="base" pagecolor="#ffffff" bordercolor="#666666" borderopacity="1.0" inkscape:zoom="11.2" inkscape:cx="19.890522" inkscape:cy="16.111428" showgrid="false" fit-margin-top="0" fit-margin-left="0" inkscape:document-units="px" inkscape:pageopacity="0.0" inkscape:current-layer="layer1" inkscape:pageshadow="2" fit-margin-right="0" fit-margin-bottom="0" inkscape:window-width="1280" inkscape:window-x="0" inkscape:window-height="745" inkscape:window-y="27" inkscape:window-maximized="1">
	</sodipodi:namedview>
<g id="layer1" transform="translate(580.71429,-1.576468)" inkscape:label="Layer 1" inkscape:groupmode="layer">
	<path id="path3763" inkscape:connector-curvature="0" d="M-572.714,2.576c-1.108,0-2,0.892-2,2v4c0,1.108,0.892,2,2,2s2-0.892,2-2
		v-4C-570.714,3.469-571.606,2.576-572.714,2.576z M-556.714,2.576c-1.106,0-2,0.892-2,2v4c0,1.108,0.894,2,2,2c1.107,0,2-0.892,2-2
		v-4C-554.714,3.469-555.607,2.576-556.714,2.576z M-569.714,6.576v2c0,1.662-1.338,3-3,3c-1.662,0-3-1.338-3-3V6.701
		c-1.728,0.442-3,2.005-3,3.875v16c0,2.215,1.784,4,4,4h20c2.217,0,4-1.785,4-4v-16c0-1.87-1.271-3.433-3-3.875v1.875
		c0,1.662-1.338,3-3,3s-3-1.338-3-3v-2H-569.714z M-575.621,15.576h21.813c0.057,0,0.094,0.039,0.094,0.094v11.813
		c0,0.055-0.039,0.094-0.094,0.094h-21.813c-0.056,0-0.094-0.039-0.094-0.094V15.67C-575.714,15.615-575.676,15.576-575.621,15.576z
		"/>
	<path id="path4088" inkscape:connector-curvature="0" fill="#FFFFFF" d="M-572.714,3.576c-1.108,0-2,0.892-2,2v4
		c0,1.108,0.892,2,2,2s2-0.892,2-2v-4C-570.714,4.469-571.606,3.576-572.714,3.576z M-556.714,3.576c-1.106,0-2,0.892-2,2v4
		c0,1.108,0.894,2,2,2c1.107,0,2-0.892,2-2v-4C-554.714,4.469-555.607,3.576-556.714,3.576z M-569.714,7.576v2c0,1.662-1.338,3-3,3
		c-1.662,0-3-1.338-3-3V7.701c-1.728,0.442-3,2.005-3,3.875v16c0,2.215,1.784,4,4,4h20c2.217,0,4-1.785,4-4v-16
		c0-1.87-1.271-3.433-3-3.875v1.875c0,1.662-1.338,3-3,3s-3-1.338-3-3v-2H-569.714z M-575.621,16.576h21.813
		c0.057,0,0.094,0.039,0.094,0.094v11.813c0,0.055-0.039,0.094-0.094,0.094h-21.813c-0.056,0-0.094-0.039-0.094-0.094V16.67
		C-575.714,16.615-575.676,16.576-575.621,16.576z"/>
</g>
<rect x="19.271" y="15.021" fill="#FFFFFF" width="3.418" height="11.963"/>
<rect x="14.997" y="19.292" fill="#FFFFFF" width="11.962" height="3.418"/>
</svg>
